<svg id="stroke" data-name="stroke" xmlns="http://www.w3.org/2000/svg" viewBox="0 0 414.43 37.86"><path fill="#cf955cb3" d="M316.46,576a14,14,0,0,0,3.88.75c1.35.09,2.72.11,4.08.07,2.73-.08,5.46-.35,8.17-.68,5.44-.66,10.85-1.56,16.23-2.56,10.77-2.11,21.55-4.23,32.36-6.16q32.43-5.77,65.14-10t65.57-7.08q32.86-2.76,65.89-3.82c11-.33,22-.43,33-.38s22,.28,33.07.82,22.05,1.33,33.08,2.55,22,2.76,33,5.86c.69.19,1.37.39,2,.62l2,.62,4,1.22c1.36.42,2.72.9,4.1,1.45a30.91,30.91,0,0,1,4.28,2,10.86,10.86,0,0,1,2.5,1.91,6,6,0,0,1,1.41,2.3,5,5,0,0,1,.25,2,5.2,5.2,0,0,1-.55,1.88,5.92,5.92,0,0,1-1.64,1.95,8.8,8.8,0,0,1-1.41.92,15.26,15.26,0,0,1-2.47,1,37.11,37.11,0,0,1-8.95,1.54c-1.51.09-2.84.08-4.23.12l-4.12.08-8.26.11-16.49.08c-21.87-.36-43.61,3.28-64.87,8.79,10.54-3,21.16-5.92,31.93-8.17,5.38-1.15,10.81-2.15,16.3-2.89s11-1.19,16.47-1.67l16.4-1.39,8.18-.76,4.09-.4c1.35-.14,2.77-.26,4-.42a30.84,30.84,0,0,0,7.14-1.76,7.33,7.33,0,0,0,1.29-.65,1.29,1.29,0,0,0,.29-.23s-.09,0-.32.39a2.3,2.3,0,0,0-.26.91,2.59,2.59,0,0,0,.11,1,1.92,1.92,0,0,0,.29.6,7.46,7.46,0,0,0-.84-.49,24.61,24.61,0,0,0-3.23-1.3c-1.2-.39-2.45-.75-3.72-1.12l-4-1.1-2-.56c-.63-.19-1.26-.35-1.9-.52A244.09,244.09,0,0,0,676,557.82c-10.78-1.26-21.65-2.09-32.54-2.69-21.79-1.21-43.67-1.5-65.54-1.27s-43.77,1-65.64,2.2-43.72,3-65.53,5.15-43.57,4.93-65.27,8.13c-10.85,1.59-21.68,3.3-32.49,5.22-5.42.94-10.85,1.76-16.32,2.35-2.73.29-5.48.51-8.23.65-1.38.06-2.76.12-4.15.08a18.85,18.85,0,0,1-4.23-.5Z" transform="translate(-316.07 -546.08)"/></svg>
