<?xml version="1.0" standalone="no"?>
<!DOCTYPE svg PUBLIC "-//W3C//DTD SVG 20010904//EN"
 "http://www.w3.org/TR/2001/REC-SVG-20010904/DTD/svg10.dtd">
<svg version="1.0" xmlns="http://www.w3.org/2000/svg"
 width="2808.000000pt" height="2808.000000pt" viewBox="0 0 2808.000000 2808.000000"
 preserveAspectRatio="xMidYMid meet">
<metadata>
Created by potrace 1.14, written by Peter Selinger 2001-2017
</metadata>
<g transform="translate(0.000000,2808.000000) scale(0.100000,-0.100000)"
fill="#000000" stroke="none">
<path d="M13430 27909 c-1762 -75 -3508 -489 -5105 -1211 -1912 -864 -3608
-2155 -4959 -3774 -1233 -1477 -2152 -3208 -2679 -5044 -675 -2353 -716 -4885
-115 -7255 837 -3305 2885 -6207 5728 -8114 2699 -1811 5888 -2606 9150 -2280
4080 407 7800 2643 10106 6074 354 527 614 974 899 1545 1176 2352 1649 4954
1384 7610 -271 2726 -1373 5341 -3145 7464 -1559 1868 -3556 3283 -5829 4131
-1366 509 -2781 792 -4270 855 -272 11 -888 11 -1165 -1z m1075 -199 c2269
-85 4391 -689 6336 -1806 1342 -770 2569 -1788 3584 -2974 1623 -1895 2693
-4189 3100 -6645 126 -765 179 -1425 179 -2245 0 -580 -20 -972 -75 -1480
-254 -2342 -1095 -4548 -2467 -6470 -635 -889 -1403 -1727 -2242 -2445 -1889
-1618 -4174 -2686 -6620 -3095 -781 -131 -1438 -184 -2270 -184 -581 0 -973
20 -1480 75 -2343 254 -4548 1095 -6470 2467 -889 635 -1727 1403 -2445 2242
-906 1058 -1645 2247 -2193 3530 -1314 3076 -1446 6578 -367 9757 557 1643
1427 3170 2560 4493 451 527 978 1054 1505 1505 2009 1721 4468 2819 7080
3164 759 100 1546 138 2285 111z"/>
<path d="M13980 27040 l0 -500 50 0 50 0 0 500 0 500 -50 0 -50 0 0 -500z"/>
<path d="M12600 27448 c1 -43 56 -568 61 -573 2 -2 16 -1 32 2 34 7 34 -7 2
308 -33 314 -28 295 -65 295 -27 0 -30 -3 -30 -32z"/>
<path d="M15416 27458 c-7 -32 -56 -517 -56 -549 0 -21 6 -28 28 -32 15 -3 29
-4 31 -2 5 5 60 530 61 573 0 29 -3 32 -30 32 -23 0 -31 -5 -34 -22z"/>
<path d="M11206 27252 c-3 -5 23 -140 57 -301 l62 -292 29 5 c16 4 31 8 33 10
2 2 -24 134 -58 295 l-62 291 -28 0 c-15 0 -30 -4 -33 -8z"/>
<path d="M16751 26969 c-34 -161 -60 -293 -58 -295 2 -2 17 -6 33 -10 l29 -5
62 292 c34 161 60 296 57 301 -3 4 -18 8 -33 8 l-28 0 -62 -291z"/>
<path d="M9858 26893 c-10 -2 -18 -9 -18 -15 0 -21 181 -568 188 -568 23 1 52
14 52 25 0 33 -180 560 -192 561 -7 1 -21 0 -30 -3z"/>
<path d="M18176 26889 c-55 -162 -176 -545 -176 -554 0 -16 51 -30 60 -16 12
20 184 561 179 565 -2 2 -16 7 -31 11 -19 5 -29 3 -32 -6z"/>
<path d="M8543 26388 c-13 -6 -23 -14 -23 -18 0 -7 237 -541 243 -547 6 -6 57
19 57 27 0 16 -239 545 -247 547 -4 1 -18 -3 -30 -9z"/>
<path d="M19491 26378 c-5 -13 -59 -135 -120 -272 -61 -136 -111 -252 -111
-256 0 -8 51 -33 57 -27 6 6 243 540 243 547 0 6 -45 30 -56 30 -2 0 -8 -10
-13 -22z"/>
<path d="M13480 25923 c-682 -36 -1104 -79 -1615 -164 -1997 -334 -3719 -1123
-5211 -2386 -504 -427 -1044 -985 -1489 -1538 -582 -723 -1078 -1503 -1529
-2405 -352 -704 -596 -1297 -845 -2052 -349 -1061 -591 -2234 -591 -2873 0
-183 14 -241 70 -297 33 -34 43 -38 87 -38 89 0 164 71 198 186 8 29 33 138
55 241 85 397 183 676 375 1068 520 1059 1453 2102 2425 2710 578 362 1134
575 1740 666 174 27 592 37 777 20 882 -83 1693 -500 2452 -1261 254 -255 391
-428 564 -715 186 -308 413 -771 484 -985 30 -91 51 -127 103 -173 43 -40 87
-52 159 -45 78 8 110 36 255 227 75 98 174 221 220 272 253 284 587 480 991
585 399 103 923 129 1390 68 481 -62 880 -230 1185 -500 108 -95 212 -214 367
-417 148 -195 185 -227 263 -235 74 -7 117 5 161 45 50 46 81 99 110 188 30
95 141 341 255 566 164 324 329 590 494 800 104 131 486 514 646 646 633 524
1228 806 1929 915 168 26 585 36 777 18 1307 -118 2680 -1001 3711 -2385 428
-575 756 -1201 915 -1745 22 -74 56 -214 76 -310 53 -249 80 -333 122 -379 92
-103 206 -92 264 24 25 49 25 54 24 280 -1 327 -42 654 -150 1195 -312 1571
-970 3265 -1805 4651 -1109 1842 -2540 3254 -4244 4189 -235 129 -670 341
-910 443 -1257 534 -2587 824 -4100 897 -185 9 -1007 11 -1155 3z"/>
<path d="M7272 25733 c-40 -23 -42 -26 -29 -47 7 -11 119 -203 247 -426 128
-223 236 -409 241 -414 8 -10 89 33 89 48 0 13 -493 866 -500 865 -3 -1 -24
-12 -48 -26z"/>
<path d="M20487 25332 c-136 -236 -247 -433 -247 -438 0 -15 80 -58 89 -48 5
5 113 191 241 414 128 223 239 415 247 426 13 21 11 23 -33 48 -26 14 -47 26
-48 26 -1 0 -113 -193 -249 -428z"/>
<path d="M6100 24972 l-23 -19 174 -241 c96 -133 179 -241 185 -242 6 0 19 9
29 19 17 19 12 27 -156 260 -96 132 -177 241 -180 241 -4 0 -17 -8 -29 -18z"/>
<path d="M21771 24749 c-168 -233 -173 -241 -156 -260 10 -10 23 -19 29 -19 6
1 89 109 185 242 l174 241 -23 19 c-12 10 -25 18 -29 18 -3 0 -84 -109 -180
-241z"/>
<path d="M4996 24081 c-17 -18 -10 -27 180 -237 108 -121 202 -220 208 -222 7
-1 20 6 30 17 18 20 18 21 -15 58 -279 311 -364 403 -374 403 -6 0 -20 -9 -29
-19z"/>
<path d="M22879 23918 c-90 -101 -179 -200 -198 -221 -33 -37 -33 -38 -15 -58
10 -11 23 -18 30 -17 6 2 100 101 208 222 190 210 197 219 180 237 -9 10 -23
19 -29 19 -7 0 -86 -82 -176 -182z"/>
<path d="M4007 23092 c-10 -10 -17 -23 -17 -28 0 -6 80 -82 177 -170 294 -265
261 -239 284 -218 11 10 18 23 17 29 -2 9 -375 350 -429 392 -13 11 -19 10
-32 -5z"/>
<path d="M23834 22914 c-121 -109 -220 -203 -222 -209 -1 -6 6 -19 17 -29 20
-18 22 -18 63 20 284 254 398 360 398 369 0 7 -8 19 -19 29 -17 16 -28 8 -237
-180z"/>
<path d="M3114 21985 c-11 -17 -14 -29 -8 -33 6 -4 115 -83 243 -176 225 -163
233 -168 252 -151 10 10 19 23 19 29 -1 9 -456 345 -480 354 -5 2 -17 -9 -26
-23z"/>
<path d="M24698 21837 c-130 -95 -237 -177 -238 -183 0 -6 9 -19 19 -29 19
-17 27 -12 252 151 128 93 237 172 243 176 10 7 -18 58 -32 57 -4 0 -114 -77
-244 -172z"/>
<path d="M2336 20794 c-14 -26 -25 -48 -24 -50 10 -9 845 -488 858 -491 18 -5
67 74 54 87 -5 4 -191 112 -414 240 -223 128 -415 239 -426 247 -21 13 -23 11
-48 -33z"/>
<path d="M25268 20591 c-235 -136 -430 -250 -434 -253 -12 -12 39 -89 56 -85
13 3 848 482 858 491 2 3 -48 97 -51 95 -1 0 -194 -112 -429 -248z"/>
<path d="M1701 19544 c-6 -15 -9 -29 -6 -32 7 -7 536 -242 545 -242 8 0 33 51
27 57 -6 6 -540 243 -547 243 -4 0 -12 -12 -19 -26z"/>
<path d="M26081 19449 c-145 -65 -266 -120 -268 -122 -6 -6 19 -57 27 -57 9 0
538 235 545 242 9 8 -17 58 -29 57 -6 0 -130 -54 -275 -120z"/>
<path d="M1196 18224 c-4 -15 -5 -29 -2 -32 8 -7 546 -182 561 -182 11 0 24
29 25 52 0 7 -547 188 -568 188 -5 0 -13 -12 -16 -26z"/>
<path d="M26577 18160 c-148 -48 -271 -90 -273 -93 -9 -9 8 -57 21 -57 15 0
553 175 561 182 11 12 -9 58 -25 57 -9 -1 -137 -41 -284 -89z"/>
<path d="M837 16884 c-4 -4 -7 -19 -7 -34 l0 -27 291 -62 c161 -34 293 -60
295 -58 2 2 6 17 10 33 l6 29 -274 58 c-150 32 -282 60 -293 63 -11 3 -24 2
-28 -2z"/>
<path d="M26932 16826 l-283 -61 5 -29 c4 -16 8 -31 10 -33 2 -2 134 24 295
59 l292 61 -3 31 c-2 19 -9 31 -18 32 -8 1 -142 -26 -298 -60z"/>
<path d="M610 15460 c0 -37 -19 -32 295 -65 315 -32 301 -32 308 3 3 15 4 29
2 31 -5 5 -530 60 -572 61 -30 0 -33 -3 -33 -30z"/>
<path d="M27122 15460 c-139 -15 -254 -29 -256 -31 -3 -2 -2 -16 1 -31 7 -35
-7 -35 308 -3 314 33 295 28 295 65 0 29 -1 30 -47 29 -27 -1 -162 -14 -301
-29z"/>
<path d="M13897 14545 c-179 -49 -336 -210 -376 -385 -6 -25 -11 -81 -11 -125
0 -44 5 -100 11 -125 38 -166 188 -328 349 -376 l60 -18 -1 -3885 c0 -3343 -3
-3877 -14 -3821 -33 152 -92 285 -168 378 -124 150 -324 232 -421 172 -69 -42
-109 -129 -126 -276 -10 -89 -18 -104 -56 -104 -40 0 -149 -39 -195 -69 -66
-44 -92 -97 -87 -176 8 -133 115 -274 263 -346 45 -21 96 -42 114 -45 33 -7
32 -8 -42 -35 -141 -51 -239 -134 -297 -253 -57 -116 -48 -211 27 -277 54 -47
114 -70 249 -95 19 -3 22 -13 27 -81 11 -144 58 -250 131 -294 88 -53 252 5
381 135 86 86 152 212 189 356 l25 95 1 -131 c0 -171 99 -2726 105 -2733 3 -2
5 0 5 5 0 6 23 592 50 1304 28 712 50 1353 50 1424 l1 131 25 -95 c37 -144
103 -270 189 -356 129 -130 293 -188 381 -135 73 44 120 150 131 294 5 68 8
78 27 81 135 25 195 48 249 95 75 66 84 161 27 277 -58 119 -156 202 -297 253
-74 27 -75 28 -42 35 18 3 69 24 114 45 148 72 255 213 263 346 5 79 -21 132
-87 176 -46 30 -155 69 -195 69 -40 0 -48 15 -57 104 -15 143 -55 233 -125
276 -97 60 -297 -22 -421 -172 -76 -93 -135 -226 -168 -378 -11 -56 -14 478
-14 3821 l-1 3885 60 18 c79 24 162 79 227 149 89 98 133 213 133 352 0 151
-47 263 -154 371 -109 109 -221 154 -376 153 -47 0 -107 -7 -133 -14z"/>
<path d="M530 14040 l0 -50 500 0 500 0 0 50 0 50 -500 0 -500 0 0 -50z"/>
<path d="M26530 14040 l0 -50 500 0 500 0 0 50 0 50 -500 0 -500 0 0 -50z"/>
<path d="M865 12700 c-137 -16 -251 -29 -252 -29 -2 -1 -3 -14 -3 -31 0 -27 3
-30 33 -30 42 1 567 56 572 61 2 2 1 16 -2 32 -5 25 -9 27 -52 26 -25 -1 -158
-14 -296 -29z"/>
<path d="M26867 12703 c-3 -16 -4 -30 -2 -32 5 -5 530 -60 573 -61 29 0 32 3
32 30 0 37 19 32 -295 65 -315 32 -301 32 -308 -2z"/>
<path d="M8475 11644 c-223 -41 -405 -133 -523 -262 -58 -64 -130 -180 -162
-262 -77 -201 -90 -451 -34 -678 21 -88 90 -232 147 -309 172 -231 527 -360
893 -323 196 19 417 93 428 142 3 13 7 107 8 211 l3 187 -112 0 -112 0 -6 -32
c-3 -18 -14 -94 -26 -168 -11 -74 -23 -138 -27 -142 -12 -11 -124 -37 -193
-44 -191 -19 -376 74 -486 244 -96 148 -143 390 -123 634 18 214 81 384 186
497 66 72 128 112 214 141 56 19 80 21 175 17 112 -5 174 -17 197 -41 7 -7 24
-85 37 -174 l25 -162 114 0 115 0 -6 98 c-4 53 -7 147 -7 208 l0 111 -81 37
c-137 63 -212 78 -399 82 -117 2 -188 -1 -245 -12z"/>
<path d="M17470 11646 c-279 -62 -480 -216 -603 -461 -123 -246 -130 -598 -19
-864 145 -344 514 -555 892 -511 207 25 374 104 515 245 127 127 200 262 242
449 23 102 22 355 -1 461 -78 355 -330 607 -678 679 -90 19 -268 20 -348 2z
m338 -181 c99 -54 172 -153 221 -302 43 -126 61 -254 61 -425 0 -310 -59 -521
-186 -657 -81 -88 -143 -115 -259 -116 -77 0 -98 4 -148 27 -68 32 -150 113
-191 187 -117 217 -148 613 -71 918 35 137 77 215 160 299 90 91 125 104 260
101 89 -2 106 -6 153 -32z"/>
<path d="M4380 11550 c0 -38 3 -70 8 -71 4 0 52 -6 107 -12 l100 -12 3 -721 2
-721 -62 -7 c-35 -4 -84 -9 -110 -13 l-48 -6 0 -73 0 -74 703 2 702 3 6 95 c4
52 10 173 14 268 l8 172 -110 0 -110 0 -38 -190 -38 -190 -253 0 -254 0 2 727
3 728 110 12 c61 6 111 12 113 12 1 1 2 33 2 71 l0 70 -430 0 -430 0 0 -70z"/>
<path d="M5780 11551 c0 -80 -7 -75 128 -87 45 -3 86 -12 90 -18 4 -6 9 -258
13 -561 6 -530 7 -553 28 -625 52 -173 146 -294 288 -368 140 -72 316 -101
495 -82 331 37 517 205 591 535 18 81 20 138 26 600 l6 510 115 12 c63 6 116
12 118 12 1 1 2 33 2 71 l0 70 -325 0 -325 0 0 -70 c0 -38 1 -70 3 -71 1 0 54
-6 117 -12 l115 -12 0 -490 c-1 -430 -3 -500 -18 -575 -45 -212 -143 -314
-329 -341 -92 -13 -204 -1 -277 32 -100 44 -174 149 -207 296 -19 82 -31 635
-19 907 l7 174 77 6 c42 4 91 10 109 13 l32 5 0 69 0 69 -430 0 -430 0 0 -69z"/>
<path d="M9410 11550 c0 -38 3 -70 8 -71 4 0 52 -6 107 -12 l100 -12 3 -721 2
-721 -72 -7 c-40 -4 -90 -10 -110 -13 l-38 -6 0 -73 0 -74 423 2 422 3 3 71 3
71 -48 6 c-26 4 -75 9 -109 13 l-61 6 -6 127 c-4 69 -7 178 -7 241 l1 115 87
107 c48 59 89 107 92 107 4 1 327 -632 358 -700 1 -3 -30 -9 -69 -12 -40 -3
-76 -10 -81 -15 -5 -5 -8 -38 -6 -73 l3 -64 403 -3 402 -2 0 74 0 75 -57 6
c-32 4 -80 10 -108 14 l-49 6 -273 495 c-150 272 -273 497 -273 500 0 9 308
382 339 411 23 22 42 27 141 38 173 19 160 11 160 92 l0 69 -310 0 -310 0 0
-69 c0 -77 -1 -76 80 -87 27 -4 50 -11 50 -15 0 -5 -129 -170 -287 -366 l-288
-357 -2 204 c-2 113 0 277 5 365 l7 160 100 12 c55 6 103 12 108 12 4 1 7 33
7 71 l0 70 -425 0 -425 0 0 -70z"/>
<path d="M11160 11550 l0 -69 33 -5 c17 -2 59 -8 91 -13 l60 -8 217 -420 218
-420 -2 -300 -2 -300 -100 -12 c-55 -6 -110 -12 -122 -12 -22 -1 -23 -5 -23
-76 l0 -75 450 0 450 0 0 74 0 74 -42 6 c-24 3 -77 8 -119 12 l-76 7 -7 81
c-3 44 -6 184 -6 310 l0 229 206 401 c114 221 211 404 217 407 5 4 44 12 86
18 119 19 111 13 111 92 l0 69 -290 0 -290 0 0 -70 c0 -80 -10 -72 124 -90 44
-6 81 -11 82 -13 2 -1 -71 -153 -162 -336 -90 -184 -166 -332 -168 -330 -9 9
-296 655 -296 665 0 7 31 14 78 18 128 12 122 7 122 87 l0 69 -420 0 -420 0 0
-70z"/>
<path d="M15260 11550 c0 -38 3 -70 8 -71 4 0 52 -6 107 -12 l100 -12 3 -721
2 -721 -72 -7 c-40 -4 -90 -10 -110 -13 l-38 -6 0 -73 0 -74 703 2 702 3 12
210 c6 116 12 236 12 268 l1 57 -109 0 -109 0 -10 -47 c-6 -27 -23 -112 -38
-190 l-28 -143 -253 0 -253 0 2 727 3 728 110 12 c61 6 111 12 113 12 1 1 2
33 2 71 l0 70 -430 0 -430 0 0 -70z"/>
<path d="M18630 11550 c0 -38 3 -70 8 -71 4 0 52 -6 107 -12 l100 -12 6 -550
c5 -521 6 -554 26 -626 79 -283 267 -434 582 -469 116 -13 209 -7 330 21 246
57 401 226 469 514 13 59 17 155 22 590 l5 520 115 12 c63 6 116 12 118 12 1
1 2 33 2 71 l0 70 -325 0 -325 0 0 -69 0 -70 43 -6 c23 -3 76 -9 117 -13 l75
-7 0 -510 c0 -556 -2 -577 -60 -700 -71 -150 -242 -226 -442 -196 -171 25
-264 112 -319 297 -16 52 -18 119 -21 585 l-4 527 88 7 c140 11 133 6 133 86
l0 69 -425 0 -425 0 0 -70z"/>
<path d="M20620 11551 c0 -39 3 -71 8 -72 4 0 52 -6 107 -12 99 -12 100 -12
106 -42 9 -39 11 -1308 3 -1367 l-6 -45 -101 -12 c-56 -6 -105 -15 -110 -20
-4 -4 -7 -37 -5 -72 l3 -64 438 -3 437 -2 0 74 0 73 -37 6 c-21 4 -75 9 -119
13 l-81 7 -7 75 c-3 41 -6 157 -6 257 l0 182 138 6 c289 14 505 92 622 224 77
87 110 188 110 335 0 260 -135 416 -429 496 l-96 26 -487 4 -488 3 0 -70z
m915 -117 c33 -12 69 -36 107 -74 48 -48 60 -68 78 -129 18 -60 21 -89 18
-169 -6 -127 -33 -197 -102 -267 -70 -72 -137 -96 -278 -103 l-108 -5 0 295
c0 162 3 337 7 388 l6 92 111 -5 c70 -3 130 -11 161 -23z"/>
<path d="M22230 11550 c0 -38 3 -70 8 -71 4 0 52 -6 107 -12 l100 -12 3 -721
2 -721 -62 -7 c-35 -4 -84 -9 -110 -13 l-48 -6 0 -73 0 -74 724 0 724 0 6 138
c4 75 9 183 12 240 l6 103 -108 -3 -109 -3 -27 -155 c-15 -85 -27 -156 -28
-157 0 -2 -128 -3 -285 -3 l-285 0 0 345 0 345 168 0 169 0 12 -102 c17 -148
10 -138 97 -138 l74 0 0 320 0 320 -75 0 -74 0 -6 -32 c-4 -18 -12 -71 -18
-118 l-12 -85 -168 -3 -167 -2 0 305 0 305 259 0 259 0 12 -72 c7 -40 20 -111
29 -158 l16 -85 103 -3 102 -3 0 74 c0 41 -3 149 -7 240 l-6 167 -699 0 -698
0 0 -70z"/>
<path d="M1113 11338 l-283 -61 0 -28 c0 -15 4 -30 8 -33 7 -4 580 112 590
120 9 6 -11 64 -21 63 -7 0 -139 -28 -294 -61z"/>
<path d="M26655 11370 c-4 -17 -5 -33 -3 -34 10 -8 583 -124 590 -120 4 3 8
18 8 33 l0 28 -272 57 c-150 32 -283 60 -295 63 -17 4 -22 -1 -28 -27z"/>
<path d="M1465 10000 c-267 -88 -270 -89 -268 -116 1 -14 5 -29 8 -32 5 -5
543 164 566 178 16 10 0 60 -20 59 -9 0 -137 -40 -286 -89z"/>
<path d="M26306 10063 c-4 -15 -3 -29 3 -33 23 -14 561 -183 566 -178 3 3 7
18 8 32 2 27 -1 28 -272 117 -151 49 -280 89 -286 89 -7 0 -16 -12 -19 -27z"/>
<path d="M1963 8711 c-145 -65 -265 -120 -268 -123 -7 -6 15 -58 25 -58 7 0
541 237 547 243 7 8 -20 57 -31 56 -6 0 -129 -53 -273 -118z"/>
<path d="M25821 8804 c-6 -15 -10 -28 -8 -31 6 -6 540 -243 547 -243 10 0 32
52 25 58 -7 7 -536 242 -545 242 -4 0 -12 -12 -19 -26z"/>
<path d="M2740 7584 c-233 -135 -426 -247 -427 -248 -2 -2 9 -24 23 -50 25
-44 27 -46 48 -33 11 8 203 119 426 247 223 128 409 236 414 240 10 10 -33 90
-48 90 -6 0 -202 -111 -436 -246z"/>
<path d="M24851 7790 c-13 -23 -19 -45 -15 -50 5 -4 191 -112 414 -240 223
-128 415 -239 426 -247 21 -13 23 -11 48 33 14 26 25 48 24 50 -10 9 -845 488
-858 491 -10 3 -24 -10 -39 -37z"/>
<path d="M3338 6317 c-131 -95 -238 -175 -238 -178 0 -4 8 -17 18 -29 l19 -23
241 174 c133 96 241 179 242 185 0 10 -32 44 -41 44 -2 -1 -111 -78 -241 -173z"/>
<path d="M24477 6472 c-10 -10 -17 -23 -17 -28 1 -5 109 -87 242 -183 l241
-174 19 23 c10 12 18 25 18 29 0 6 -474 351 -482 351 -3 0 -12 -8 -21 -18z"/>
<path d="M4210 5245 c-118 -107 -216 -200 -218 -208 -1 -7 6 -21 16 -30 19
-17 27 -10 238 179 121 109 221 201 223 206 3 10 -28 48 -38 48 -3 -1 -103
-88 -221 -195z"/>
<path d="M23626 5421 c-10 -11 -16 -24 -15 -29 2 -5 102 -97 223 -206 209
-188 220 -196 237 -180 11 10 19 22 19 29 0 10 -420 396 -439 403 -4 1 -15 -6
-25 -17z"/>
<path d="M5177 4259 c-190 -212 -197 -222 -181 -240 9 -10 23 -19 29 -19 10 0
95 92 374 403 33 36 33 38 16 57 -10 11 -23 20 -29 20 -6 0 -100 -100 -209
-221z"/>
<path d="M22666 4461 c-18 -20 -18 -21 15 -58 279 -311 364 -403 374 -403 6 0
20 9 29 19 17 18 10 27 -180 237 -108 121 -202 220 -208 222 -7 1 -20 -6 -30
-17z"/>
<path d="M6251 3388 l-174 -241 23 -19 c12 -10 25 -18 29 -18 3 0 84 109 180
241 168 233 173 241 156 260 -10 10 -23 19 -29 19 -6 -1 -89 -109 -185 -242z"/>
<path d="M21615 3611 c-17 -19 -12 -27 156 -260 96 -132 177 -241 180 -241 4
0 17 8 30 18 l22 19 -174 241 c-96 132 -179 241 -185 241 -6 1 -19 -8 -29 -18z"/>
<path d="M7495 2828 c-131 -227 -244 -423 -252 -434 -13 -21 -11 -23 33 -48
26 -14 48 -25 50 -24 9 10 488 845 491 858 3 10 -10 23 -35 38 -22 12 -42 22
-45 22 -2 0 -112 -186 -242 -412z"/>
<path d="M20277 3217 c-25 -14 -37 -27 -34 -37 3 -13 482 -848 491 -858 2 -1
24 10 50 24 44 25 46 27 33 48 -8 11 -121 207 -252 434 -130 226 -240 412
-244 412 -3 0 -23 -10 -44 -23z"/>
<path d="M8640 2005 c-68 -152 -121 -277 -119 -279 14 -12 52 -27 57 -22 7 8
242 536 242 546 0 6 -44 30 -54 30 -2 0 -59 -124 -126 -275z"/>
<path d="M19283 2268 c-13 -6 -23 -14 -23 -18 0 -10 235 -538 242 -546 5 -5
43 10 57 22 5 5 -240 554 -248 553 -3 0 -16 -5 -28 -11z"/>
<path d="M9930 1511 c-49 -153 -90 -283 -90 -289 0 -11 49 -26 58 -18 7 8 182
546 182 561 0 11 -29 24 -52 25 -4 0 -48 -125 -98 -279z"/>
<path d="M18018 1783 c-10 -2 -18 -10 -18 -17 0 -16 175 -554 182 -562 9 -8
58 7 58 18 0 32 -183 568 -193 567 -7 -1 -20 -3 -29 -6z"/>
<path d="M13980 1040 l0 -500 50 0 50 0 0 500 0 500 -50 0 -50 0 0 -500z"/>
<path d="M11263 1149 c-34 -161 -60 -296 -57 -301 3 -4 18 -8 33 -8 l28 0 62
291 c34 161 60 293 58 295 -2 2 -17 6 -33 10 l-29 5 -62 -292z"/>
<path d="M16707 1433 c-13 -3 -17 -11 -14 -26 3 -12 31 -145 63 -294 l57 -273
28 0 c15 0 30 4 33 8 3 5 -23 140 -57 300 -65 305 -62 297 -110 285z"/>
<path d="M12656 1198 c-9 -52 -56 -520 -56 -550 0 -24 4 -28 29 -28 20 0 31 6
34 18 8 29 61 571 56 575 -2 2 -16 7 -31 11 -25 6 -28 3 -32 -26z"/>
<path d="M15383 1223 c-29 -6 -29 1 2 -308 33 -314 28 -295 65 -295 37 0 37
-14 5 300 -29 280 -33 311 -43 309 -4 -1 -17 -4 -29 -6z"/>
</g>
</svg>
