<svg id="Layer_1" data-name="Layer 1" xmlns="http://www.w3.org/2000/svg" viewBox="0 0 476 474"><path d="M494,20,304.89,143.36c16.49,14.6,32.74,22.57,45,37ZM298.35,93.59c-12.58.44-26.59,5-38.05,11.77-7.64,4.53-14.12,10-18.3,15.15s-5.79,9.83-5.65,12.66l.28,5.73-5.07,2.68C133.71,193.16,80.94,250.73,18,310.59V494H184.05c6.14-15.42,12.72-33.9,15.08-47.54,1.73-10-2.78-21.8-8.23-35.24s-11.85-28.7-7.63-45.42c3.49-13.83,14.38-25.75,24.1-35.66,4.45-4.53,8.71-8.46,12.07-11.44-6.55-8.58-14.06-20.32-16.51-34.9l17.75-3c2.68,16,15.21,28.54,22.8,39.24l-.32.23c10.54,14.64,18.89,28.4,30.72,37.55,13.36,10.34,31.48,16.39,66.53,11.49l6.65-.93,2.79,6.12c7,15.32,14.37,23.89,21,28.43a26.17,26.17,0,0,0,18.69,4.79c12.13-1.34,24.29-11,27.76-14.27,4.13-3.92,9.66-9.47,13.32-16.12a29.26,29.26,0,0,0,3.48-20.75C391.43,319,364.52,247.85,343.86,204c-9.25-19.62-35.79-34.49-53-47.95-2.43-1.4-2.67-2.58-3.24-5.15-4.21-19.17,3.19-40.26,11-57.3h-.28Zm-239,43c17.87,4.93,37.78,9.66,57.41,14.82,14.8,3.88,29.26,7.93,42.4,12.76a663.49,663.49,0,0,1,59.08-35.77c-51.62-13.3-109.93-3.15-158.89,8.19Zm28.74,26.13c-23,4.13-46,10.25-67.15,16.66,18.14,3.81,38.3,7.31,58.21,11.24,11.77,2.32,23.34,4.77,34.26,7.64q13.43-10.92,27.4-21.15c-9.05-2.93-18.71-5.69-28.62-8.29-8-2.09-16-4.1-24.1-6.1ZM47.44,202.94c-9.88,2.1-19.73,4.58-29.44,7.29v18q10.09,1.53,20.17,3.15c10.51,1.7,20.85,3.49,30.74,5.62,8.83-8.18,17.88-16.32,27.26-24.4-6.64-1.56-13.52-3-20.5-4.4-9.32-1.84-18.81-3.57-28.23-5.3ZM304,224a16,16,0,1,1-16,16A16,16,0,0,1,304,224ZM18,246.51v26.58q6.24.3,12.34.71Q41.5,263,52.73,252.26,44,250.6,35.3,249.19T18,246.51Z" transform="translate(-18 -20)"/></svg>