<svg xmlns="http://www.w3.org/2000/svg"  viewBox="0 0 100 100" width="100px" height="100px"><path fill="#e85654" d="M14.541,45.973C7.7,45.973,2,48.875,2,57.631c0,6.936,3.833,11.304,12.717,11.304 c10.457,0,11.128-6.889,11.128-6.889h-5.067c0,0-1.086,3.709-6.37,3.709c-4.303,0-7.398-2.907-7.398-6.981h19.365v-2.557 C26.375,52.187,23.816,45.973,14.541,45.973L14.541,45.973z M14.364,49.241c4.096,0,6.889,2.509,6.889,6.27H7.122 C7.122,51.518,10.767,49.241,14.364,49.241z"/><path fill="#1f212b" d="M14.541,45.973c9.275,0,11.834,6.214,11.834,10.245v2.557H7.01 c0,4.074,3.095,6.981,7.398,6.981c5.283,0,6.37-3.709,6.37-3.709h5.067c0,0-0.67,6.889-11.128,6.889 C5.833,68.935,2,64.567,2,57.631C2,48.875,7.7,45.973,14.541,45.973 M7.122,55.511h14.131c0-3.761-2.792-6.27-6.889-6.27 C10.767,49.241,7.122,51.518,7.122,55.511 M14.541,43.973C5.3,43.973,0,48.951,0,57.631c0,8.579,5.227,13.304,14.717,13.304 c9.707,0,12.826-5.688,13.118-8.695c0.055-0.562-0.13-1.12-0.509-1.538c-0.036-0.039-0.073-0.077-0.111-0.113 c0.685-0.318,1.16-1.011,1.16-1.815v-2.557C28.375,51.67,25.461,43.973,14.541,43.973L14.541,43.973z M9.679,53.511 c0.922-1.486,2.845-2.27,4.685-2.27c2.153,0,3.724,0.834,4.446,2.27H9.679L9.679,53.511z M9.385,60.774h9.85 c-0.168,0.204-0.298,0.444-0.376,0.71c-0.069,0.196-0.885,2.271-4.45,2.271C11.971,63.756,10.138,62.615,9.385,60.774L9.385,60.774 z"/><path fill="#3a83c1" d="M26.016,36.973l0.016,27.502c0,1.547-0.11,3.719-0.11,3.719h4.87 c0,0,0.175-1.56,0.175-2.986c0,0,2.406,3.764,8.949,3.764c6.89,0,11.57-4.783,11.57-11.636c0-6.375-4.299-11.503-11.559-11.503 c-6.798,0-8.911,3.671-8.911,3.671L31,36.973L26.016,36.973z M38.669,49.204c4.679,0,7.654,3.472,7.654,8.132 c0,4.997-3.436,8.266-7.62,8.266c-4.994,0-7.687-3.899-7.687-8.221C31.016,53.353,33.433,49.204,38.669,49.204z"/><path fill="#1f212b" d="M31,36.973l0.016,12.532c0,0,2.113-3.671,8.911-3.671c7.26,0,11.559,5.128,11.559,11.503 c0,6.853-4.68,11.636-11.57,11.636c-6.543,0-8.949-3.764-8.949-3.764c0,1.426-0.175,2.986-0.175,2.986h-4.87 c0,0,0.11-2.172,0.11-3.719l-0.016-27.502H31 M38.703,65.602c4.184,0,7.62-3.269,7.62-8.266c0-4.66-2.975-8.132-7.654-8.132 c-5.237,0-7.654,4.149-7.654,8.177C31.016,61.703,33.709,65.602,38.703,65.602 M31,34.973h-4.984c-0.531,0-1.039,0.211-1.415,0.586 s-0.586,0.884-0.585,1.415l0.016,27.502c0,1.476-0.107,3.595-0.108,3.616c-0.028,0.547,0.17,1.082,0.548,1.479 c0.378,0.397,0.902,0.622,1.45,0.622h4.87c0.749,0,1.411-0.414,1.753-1.037c1.691,0.972,4.1,1.815,7.371,1.815 c7.99,0,13.57-5.608,13.57-13.636c0-7.95-5.576-13.503-13.559-13.503c-3.023,0-5.278,0.662-6.916,1.489L33,36.97 C32.999,35.867,32.104,34.973,31,34.973L31,34.973z M38.703,63.602c-3.929,0-5.687-3.125-5.687-6.221 c0-2.849,1.481-6.177,5.654-6.177c3.435,0,5.654,2.407,5.654,6.132C44.323,61.025,42.012,63.602,38.703,63.602L38.703,63.602z"/><path fill="#f9b621" d="M63.285,45.973c-10.235,0-10.891,5.604-10.891,6.499h5.094c0,0,0.267-3.272,5.445-3.272 c3.365,0,5.972,1.54,5.972,4.501v1.054h-5.972c-7.929,0-12.121,2.32-12.121,7.026c0,4.632,3.873,7.153,9.107,7.153 c7.133,0,9.431-3.941,9.431-3.941c0,1.568,0.121,3.112,0.121,3.112H74c0,0-0.176-1.915-0.176-3.14V54.377 C73.824,47.434,68.224,45.973,63.285,45.973L63.285,45.973z M68.906,57.918v1.405c0,1.833-1.131,6.39-7.789,6.39 c-3.646,0-5.209-1.82-5.209-3.93C55.907,57.942,61.171,57.918,68.906,57.918L68.906,57.918z"/><path fill="#1f212b" d="M63.285,45.973c4.939,0,10.54,1.461,10.54,8.404v10.589c0,1.225,0.176,3.14,0.176,3.14 h-4.529c0,0-0.121-1.545-0.121-3.112c0,0-2.298,3.941-9.431,3.941c-5.234,0-9.107-2.52-9.107-7.153 c0-4.707,4.192-7.026,12.121-7.026h5.973v-1.054c0-2.961-2.608-4.501-5.973-4.501c-5.178,0-5.445,3.272-5.445,3.272h-5.094 C52.394,51.577,53.05,45.973,63.285,45.973 M61.116,65.713c6.658,0,7.789-4.557,7.789-6.39v-1.405 c-7.734,0-12.999,0.025-12.999,3.865C55.907,63.893,57.47,65.713,61.116,65.713 M63.285,43.973 c-12.744,0-12.891,8.152-12.891,8.499c0,1.105,0.895,2,2,2h1.051c-3.656,1.796-4.632,4.711-4.632,7.31 c0,5.474,4.464,9.153,11.107,9.153c3.509,0,6.038-0.869,7.792-1.878c0.34,0.628,1.004,1.049,1.76,1.049H74 c0.562,0,1.098-0.237,1.477-0.652c0.379-0.415,0.566-0.971,0.514-1.531c-0.002-0.018-0.167-1.84-0.167-2.957V54.377 C75.824,50.492,74.195,43.973,63.285,43.973L63.285,43.973z M59.481,52.675c0.069-0.273,0.537-1.474,3.452-1.474 c0.785,0,3.066,0.128,3.766,1.555h-3.766c-1.262,0-2.416,0.057-3.471,0.165C59.474,52.841,59.48,52.76,59.481,52.675L59.481,52.675 z M61.116,63.713c-1.464,0-3.209-0.335-3.209-1.93c0-0.417,0-0.987,2.016-1.416c1.693-0.361,4.185-0.431,6.934-0.445 C66.658,61.198,65.686,63.713,61.116,63.713L61.116,63.713z"/><path fill="#70b570" d="M70.027,45.973h5.861l8.411,16.851l8.392-16.851H98l-15.286,30h-5.569l4.411-8.363 L70.027,45.973z"/><path fill="#1f212b" d="M98,45.973h0.005 M98,45.973l-15.286,30h-5.569l4.411-8.363L70.027,45.973h5.861 l8.411,16.851l8.392-16.851H98 M98.005,43.973H98h-5.309c-0.759,0-1.452,0.429-1.79,1.108l-6.604,13.26l-6.62-13.262 c-0.339-0.678-1.031-1.107-1.789-1.107h-5.861c-0.702,0-1.353,0.368-1.715,0.971c-0.361,0.602-0.38,1.35-0.05,1.97l11.03,20.701 l-3.916,7.425c-0.327,0.62-0.306,1.366,0.056,1.966c0.362,0.6,1.012,0.967,1.713,0.967h5.569c0.752,0,1.441-0.422,1.782-1.092 L99.742,46.96c0.166-0.291,0.261-0.628,0.261-0.987C100.002,44.868,99.11,43.973,98.005,43.973L98.005,43.973z M98,47.973h0.005H98 L98,47.973z"/><path fill="#1f212b" d="M57.5,74.973L57.5,74.973l-57-0.021c-0.276,0-0.5-0.224-0.5-0.5s0.224-0.5,0.5-0.5l0,0l57,0.021	c0.276,0,0.5,0.224,0.5,0.5S57.776,74.973,57.5,74.973z"/><path fill="#1f212b" d="M68.5,74.973h-7c-0.276,0-0.5-0.224-0.5-0.5s0.224-0.5,0.5-0.5h7c0.276,0,0.5,0.224,0.5,0.5	S68.776,74.973,68.5,74.973z"/><path fill="#1f212b" d="M72.5,74.973h-1c-0.276,0-0.5-0.224-0.5-0.5s0.224-0.5,0.5-0.5h1c0.276,0,0.5,0.224,0.5,0.5	S72.776,74.973,72.5,74.973z"/></svg>