<?xml version="1.0" standalone="no"?>
<!DOCTYPE svg PUBLIC "-//W3C//DTD SVG 20010904//EN"
 "http://www.w3.org/TR/2001/REC-SVG-20010904/DTD/svg10.dtd">
<svg version="1.0" xmlns="http://www.w3.org/2000/svg"
 width="900.000000pt" height="900.000000pt" viewBox="0 0 900.000000 900.000000"
 preserveAspectRatio="xMidYMid meet">
<metadata>
Created by potrace 1.14, written by Peter Selinger 2001-2017
</metadata>
<g transform="translate(0.000000,900.000000) scale(0.100000,-0.100000)"
fill="#000000" stroke="none">
<path d="M4155 8929 c-698 -59 -1350 -267 -1940 -620 -1116 -668 -1889 -1797
-2104 -3075 -47 -276 -55 -395 -55 -744 0 -258 4 -368 17 -480 68 -563 206
-1028 447 -1510 660 -1322 1940 -2233 3405 -2424 314 -41 770 -46 1065 -11
648 76 1248 279 1795 606 1108 663 1881 1786 2100 3051 50 294 59 410 59 768
0 358 -9 474 -59 768 -219 1264 -992 2388 -2100 3051 -548 328 -1133 526
-1795 606 -160 20 -669 28 -835 14z m819 -83 c1168 -131 2222 -712 2951 -1626
623 -780 955 -1729 955 -2730 0 -1032 -345 -1989 -1009 -2800 -116 -142 -370
-400 -514 -523 -440 -375 -926 -652 -1461 -832 -452 -152 -907 -225 -1396
-225 -1061 0 -2046 365 -2860 1060 -131 112 -379 362 -491 495 -980 1168
-1284 2737 -812 4190 383 1180 1276 2158 2423 2655 408 177 892 302 1310 339
69 6 143 13 165 15 95 9 609 -4 739 -18z"/>
<path d="M4480 8655 c0 -158 1 -165 20 -165 19 0 20 7 20 165 0 158 -1 165
-20 165 -19 0 -20 -7 -20 -165z"/>
<path d="M4044 8733 c11 -109 17 -133 33 -133 11 0 13 8 9 28 -3 15 -8 60 -11
100 -5 55 -11 72 -22 72 -13 0 -14 -11 -9 -67z"/>
<path d="M4935 8728 c-3 -40 -8 -85 -11 -100 -4 -20 -2 -28 9 -28 16 0 22 24
33 133 5 56 4 67 -9 67 -11 0 -17 -17 -22 -72z"/>
<path d="M3590 8727 c0 -12 42 -192 46 -196 2 -3 9 0 14 5 7 7 5 33 -5 80 -8
38 -18 79 -20 92 -3 12 -12 22 -20 22 -8 0 -15 -1 -15 -3z"/>
<path d="M5385 8708 c-2 -13 -12 -54 -20 -92 -10 -47 -12 -73 -5 -80 5 -5 12
-8 14 -5 4 4 46 184 46 196 0 2 -7 3 -15 3 -8 0 -17 -10 -20 -22z"/>
<path d="M3158 8615 c-10 -10 56 -195 69 -195 17 0 17 1 -15 104 -26 83 -39
106 -54 91z"/>
<path d="M5827 8613 c-5 -9 -57 -178 -57 -187 0 -3 6 -6 13 -6 11 0 76 173 70
189 -3 10 -21 12 -26 4z"/>
<path d="M2742 8452 c-17 -12 64 -193 84 -185 15 5 13 12 -37 120 -24 52 -38
70 -47 65z"/>
<path d="M6212 8367 c-29 -66 -37 -94 -29 -99 8 -5 26 21 54 80 48 100 47 98
29 105 -10 4 -26 -22 -54 -86z"/>
<path d="M4175 8294 c-16 -2 -79 -9 -140 -15 -1414 -140 -2513 -1044 -3072
-2529 -145 -385 -253 -852 -253 -1096 0 -47 5 -94 10 -105 13 -23 62 -26 84
-4 17 18 17 17 51 159 113 481 575 1034 1050 1261 511 243 987 153 1406 -264
69 -69 145 -155 168 -191 44 -68 151 -277 188 -367 15 -39 29 -56 49 -64 33
-12 70 1 92 32 174 249 355 338 687 339 181 1 282 -18 401 -75 102 -49 171
-106 252 -209 67 -86 78 -96 112 -96 37 0 63 32 100 125 78 198 187 365 329
505 386 379 828 488 1285 316 532 -200 1044 -778 1175 -1325 31 -132 48 -161
92 -161 39 0 49 24 49 124 0 377 -206 1072 -473 1596 -299 588 -715 1083
-1197 1425 -488 346 -1080 554 -1750 614 -104 10 -622 13 -695 5z"/>
<path d="M2324 8236 c-4 -9 114 -230 151 -284 5 -6 35 11 35 20 0 20 -156 278
-168 278 -7 0 -15 -6 -18 -14z"/>
<path d="M6568 8116 c-43 -74 -78 -139 -78 -144 0 -9 30 -26 35 -20 37 54 155
275 151 284 -12 32 -35 6 -108 -120z"/>
<path d="M1955 8000 c-7 -12 -5 -15 58 -103 48 -65 60 -76 71 -59 5 8 -109
172 -119 172 -2 0 -7 -4 -10 -10z"/>
<path d="M6981 7929 c-55 -74 -65 -99 -42 -99 9 0 109 133 118 155 2 7 0 16
-6 19 -6 4 -37 -30 -70 -75z"/>
<path d="M1600 7708 c1 -7 30 -44 65 -83 46 -51 67 -67 75 -59 8 8 -6 30 -51
80 -62 68 -89 88 -89 62z"/>
<path d="M7322 7648 c-48 -53 -61 -73 -52 -82 8 -8 27 6 75 59 35 39 64 76 65
83 0 27 -28 8 -88 -60z"/>
<path d="M1282 7386 c2 -8 34 -42 72 -76 50 -43 73 -57 80 -50 8 8 -9 29 -59
75 -68 63 -100 80 -93 51z"/>
<path d="M7635 7335 c-51 -46 -67 -67 -59 -75 8 -8 30 6 80 51 38 35 70 69 72
76 7 28 -26 10 -93 -52z"/>
<path d="M995 7040 c-7 -11 154 -132 167 -124 17 11 6 22 -71 77 -83 61 -87
62 -96 47z"/>
<path d="M7917 6994 c-75 -55 -86 -67 -68 -78 12 -8 173 113 166 124 -10 16
-16 13 -98 -46z"/>
<path d="M743 6655 c-3 -9 -4 -17 -2 -19 16 -13 270 -156 277 -156 9 0 26 30
20 35 -46 29 -272 155 -279 155 -5 0 -12 -7 -16 -15z"/>
<path d="M8100 6594 c-69 -40 -129 -75 -133 -77 -11 -3 2 -37 15 -37 5 0 70
35 143 78 89 50 134 82 132 92 -5 28 -32 18 -157 -56z"/>
<path d="M547 6256 c-4 -10 14 -22 56 -41 134 -59 127 -57 127 -40 0 10 -32
30 -86 55 -47 22 -87 40 -89 40 -2 0 -5 -6 -8 -14z"/>
<path d="M8363 6230 c-52 -25 -83 -45 -83 -55 0 -17 -7 -19 127 40 42 19 60
31 56 41 -7 18 -5 19 -100 -26z"/>
<path d="M384 5839 c-9 -16 -1 -20 93 -50 56 -18 91 -25 97 -19 13 13 13 13
-91 48 -57 19 -95 27 -99 21z"/>
<path d="M8525 5817 c-102 -34 -102 -34 -89 -47 11 -11 186 42 192 58 7 21
-16 18 -103 -11z"/>
<path d="M270 5396 c0 -9 10 -18 23 -21 83 -19 163 -33 169 -29 20 13 2 22
-74 38 -46 10 -91 20 -100 22 -12 4 -18 0 -18 -10z"/>
<path d="M8635 5388 c-98 -22 -103 -24 -89 -38 5 -5 36 -3 79 6 112 22 115 24
115 39 0 18 7 18 -105 -7z"/>
<path d="M200 4947 c0 -11 17 -17 73 -22 39 -3 84 -8 100 -11 19 -4 27 -2 27
9 0 16 -24 22 -132 33 -57 5 -68 4 -68 -9z"/>
<path d="M8720 4954 c-14 -3 -44 -7 -67 -10 -29 -3 -43 -10 -43 -20 0 -12 7
-14 28 -10 15 3 60 8 100 11 52 5 72 11 72 21 0 14 -31 16 -90 8z"/>
<path d="M4409 4637 c-54 -36 -79 -82 -79 -144 0 -30 7 -67 15 -82 18 -35 69
-79 101 -87 l24 -6 0 -1435 0 -1434 -22 15 c-12 9 -39 16 -59 16 -51 0 -72
-27 -77 -98 -4 -56 -3 -59 61 -154 36 -53 72 -119 82 -147 16 -49 33 -178 37
-281 1 -53 2 -53 5 -10 11 151 24 251 39 293 9 26 45 91 80 143 58 88 64 100
64 149 0 38 -6 60 -22 80 -19 25 -26 27 -70 23 l-48 -5 0 1423 c0 1415 0 1423
20 1429 30 9 79 53 95 86 23 44 19 130 -8 170 -37 55 -81 79 -147 79 -43 0
-65 -6 -91 -23z"/>
<path d="M170 4490 c0 -19 7 -20 165 -20 158 0 165 1 165 20 0 19 -7 20 -165
20 -158 0 -165 -1 -165 -20z"/>
<path d="M8500 4490 c0 -19 7 -20 165 -20 158 0 165 1 165 20 0 19 -7 20 -165
20 -158 0 -165 -1 -165 -20z"/>
<path d="M288 4067 c-67 -7 -88 -13 -88 -24 0 -13 11 -14 68 -9 103 11 133 17
129 29 -5 15 -11 15 -109 4z"/>
<path d="M8610 4067 c0 -16 23 -22 133 -33 56 -5 67 -4 67 9 0 11 -18 16 -77
22 -43 3 -88 9 -100 12 -16 4 -23 1 -23 -10z"/>
<path d="M2680 3716 c-131 -35 -201 -132 -202 -281 -1 -135 43 -217 147 -270
53 -27 67 -30 154 -30 58 1 112 7 136 15 l40 15 3 73 3 73 -38 -3 c-37 -3 -38
-4 -45 -52 -4 -27 -13 -53 -20 -57 -21 -14 -107 -10 -138 6 -36 19 -74 68 -90
120 -18 55 -16 162 4 223 28 84 113 140 188 125 32 -6 43 -24 53 -85 6 -36 8
-38 43 -38 l38 0 -4 68 c-3 46 -9 71 -20 80 -42 32 -167 42 -252 18z"/>
<path d="M5560 3715 c-63 -20 -123 -75 -156 -141 -23 -48 -27 -68 -27 -144 0
-75 4 -96 27 -144 102 -209 412 -205 507 6 19 42 24 70 24 138 0 68 -5 96 -24
138 -58 129 -206 191 -351 147z m158 -62 c98 -62 108 -332 16 -429 -56 -60
-144 -42 -184 36 -28 56 -42 157 -31 233 22 153 105 220 199 160z"/>
<path d="M1400 3696 c0 -24 16 -36 50 -36 25 0 30 -36 30 -230 0 -213 -3 -228
-44 -232 -25 -2 -32 -8 -34 -30 l-3 -28 230 0 231 0 0 38 c0 20 3 61 6 90 l7
52 -40 0 -40 0 -12 -60 -12 -60 -80 0 -79 0 0 230 0 230 24 0 c40 0 56 11 56
36 l0 24 -145 0 -145 0 0 -24z"/>
<path d="M1850 3696 c0 -24 16 -36 50 -36 25 0 30 -36 30 -217 0 -167 8 -204
58 -256 30 -31 105 -57 167 -57 62 0 137 26 167 57 54 56 62 93 66 289 l4 182
39 6 c33 5 39 10 39 31 l0 25 -110 0 c-109 0 -110 0 -110 -24 0 -26 16 -36 57
-36 l25 0 -4 -177 c-3 -155 -6 -182 -23 -210 -49 -81 -178 -82 -222 -1 -15 28
-19 62 -21 211 -4 171 -3 177 16 177 36 0 52 12 52 36 l0 24 -140 0 -140 0 0
-24z"/>
<path d="M3010 3696 c0 -24 16 -36 50 -36 25 0 30 -36 30 -230 0 -213 -3 -228
-44 -232 -25 -2 -32 -8 -34 -30 l-3 -28 140 0 141 0 0 30 c0 28 -3 30 -35 30
l-35 0 0 76 c0 66 3 79 27 111 l27 35 52 -104 c29 -56 53 -106 53 -110 1 -5
-8 -8 -19 -8 -16 0 -20 -7 -20 -30 l0 -30 130 0 130 0 0 30 c0 27 -3 30 -34
30 -33 0 -35 2 -117 152 -46 84 -86 156 -87 160 -2 5 22 40 53 78 46 56 63 70
85 70 44 0 60 10 60 36 0 24 -1 24 -100 24 l-100 0 0 -25 c0 -16 7 -28 19 -33
16 -6 6 -22 -70 -115 l-89 -108 0 110 c0 103 1 111 19 111 35 0 51 12 51 36
l0 24 -140 0 -140 0 0 -24z"/>
<path d="M3580 3695 c0 -20 6 -27 28 -31 23 -5 37 -26 100 -144 66 -127 72
-144 72 -198 0 -33 -3 -73 -6 -90 -5 -27 -11 -31 -43 -34 -31 -3 -36 -7 -39
-30 l-3 -28 151 0 151 0 -3 28 c-3 23 -8 27 -40 30 l-38 3 0 101 0 100 68 129
c45 86 73 129 84 129 32 0 48 12 48 36 0 24 -1 24 -96 24 l-95 0 3 -27 c2 -21
10 -29 29 -33 l27 -5 -46 -97 c-24 -54 -48 -98 -51 -98 -5 0 -65 127 -87 183
-3 10 4 16 25 20 25 5 31 12 31 32 l0 25 -135 0 -135 0 0 -25z"/>
<path d="M4890 3696 c0 -24 16 -36 51 -36 18 0 19 -10 19 -230 l0 -230 -35 0
c-32 0 -35 -2 -35 -30 l0 -30 228 2 227 3 3 88 3 88 -38 -3 c-37 -3 -38 -4
-48 -58 l-10 -55 -76 -3 -76 -3 -7 38 c-8 49 -8 337 0 386 5 27 12 37 24 37
34 0 50 12 50 36 l0 24 -140 0 -140 0 0 -24z"/>
<path d="M5970 3696 c0 -24 16 -36 50 -36 17 0 19 -13 22 -192 3 -188 4 -194
30 -238 41 -70 93 -95 198 -95 105 0 157 25 198 95 26 44 27 50 30 238 l4 192
23 0 c39 0 55 11 55 36 0 24 -1 24 -105 24 -104 0 -105 0 -105 -24 0 -24 16
-36 51 -36 20 0 20 -6 17 -184 -3 -211 -9 -229 -86 -256 -37 -13 -47 -13 -84
0 -77 27 -83 45 -86 256 -3 178 -3 184 17 184 35 0 51 12 51 36 l0 24 -140 0
-140 0 0 -24z"/>
<path d="M6610 3696 c0 -24 16 -36 51 -36 18 0 19 -10 19 -230 l0 -230 -35 0
c-32 0 -35 -2 -35 -30 l0 -30 140 0 140 0 0 30 c0 27 -3 30 -34 30 -30 0 -34
4 -40 31 -3 17 -6 53 -6 78 l0 47 80 12 c146 21 200 68 200 175 0 136 -79 177
-337 177 l-143 0 0 -24z m300 -49 c37 -18 62 -74 55 -120 -10 -71 -51 -107
-120 -107 l-35 0 0 83 c0 45 3 99 6 120 6 34 9 37 38 37 17 0 42 -6 56 -13z"/>
<path d="M7120 3696 c0 -24 16 -36 50 -36 25 0 30 -36 30 -230 0 -213 -3 -228
-44 -232 -25 -2 -32 -8 -34 -30 l-3 -28 234 0 235 0 6 31 c3 17 6 53 6 80 l0
49 -35 0 c-38 0 -40 -3 -50 -62 l-6 -38 -89 0 -90 0 0 106 0 105 53 -3 c51 -3
52 -4 55 -35 3 -29 7 -33 33 -33 l29 0 0 105 0 105 -29 0 c-27 0 -30 -3 -33
-37 l-3 -38 -52 -3 -53 -3 0 95 0 96 79 0 c86 0 82 3 96 -67 6 -30 10 -33 41
-33 l34 0 0 80 0 80 -230 0 -230 0 0 -24z"/>
<path d="M435 3645 c-5 -2 -45 -11 -87 -20 -55 -12 -78 -21 -78 -31 0 -10 6
-14 18 -10 9 2 54 12 99 22 60 12 80 20 76 30 -5 14 -9 15 -28 9z"/>
<path d="M8545 3640 c-10 -16 -6 -18 76 -35 41 -8 84 -17 97 -20 15 -4 22 -1
22 9 0 10 -24 20 -77 31 -43 9 -85 19 -95 21 -9 3 -19 0 -23 -6z"/>
<path d="M471 3199 c-92 -32 -96 -33 -87 -47 8 -13 197 49 193 62 -6 17 -20
15 -106 -15z"/>
<path d="M8435 3220 c-4 -6 -5 -13 -4 -14 12 -10 189 -63 193 -58 14 14 1 22
-76 48 -46 15 -88 29 -94 31 -7 2 -15 -1 -19 -7z"/>
<path d="M635 2789 c-49 -23 -91 -42 -92 -43 -1 -1 2 -7 6 -14 10 -17 181 60
181 83 0 8 -1 15 -2 14 -2 0 -43 -18 -93 -40z"/>
<path d="M8280 2814 c0 -22 171 -99 182 -82 8 13 -8 22 -139 79 -37 16 -43 16
-43 3z"/>
<path d="M873 2422 c-73 -43 -133 -82 -133 -89 0 -28 27 -21 123 33 159 90
177 102 171 119 -4 8 -11 15 -18 14 -6 0 -71 -35 -143 -77z"/>
<path d="M7966 2484 c-4 -9 -5 -18 -4 -19 2 -1 65 -37 140 -79 128 -73 158
-83 158 -53 0 11 -260 167 -279 167 -5 0 -12 -7 -15 -16z"/>
<path d="M1071 2018 c-56 -41 -79 -64 -72 -71 7 -7 36 9 90 48 45 32 81 62 81
66 0 22 -23 12 -99 -43z"/>
<path d="M7847 2073 c-4 -3 -7 -9 -7 -13 0 -8 153 -120 164 -120 16 0 3 28
-21 46 -97 72 -131 93 -136 87z"/>
<path d="M1353 1678 c-67 -59 -80 -78 -57 -84 5 -2 40 26 79 61 48 45 67 67
59 75 -7 7 -32 -9 -81 -52z"/>
<path d="M7576 1733 c-12 -12 -6 -19 65 -82 47 -43 74 -60 81 -53 6 6 -6 25
-39 55 -69 64 -99 87 -107 80z"/>
<path d="M1661 1359 c-43 -47 -60 -74 -53 -81 6 -6 24 6 55 39 64 69 87 99 80
107 -11 11 -17 6 -82 -65z"/>
<path d="M7267 1424 c-7 -8 16 -38 80 -107 31 -33 49 -45 55 -39 7 7 -10 34
-53 81 -65 71 -71 76 -82 65z"/>
<path d="M2006 1081 c-31 -43 -56 -81 -56 -85 0 -16 28 -3 46 22 85 114 94
130 80 135 -9 4 -33 -22 -70 -72z"/>
<path d="M6926 1152 c-7 -11 101 -156 119 -160 23 -5 19 4 -42 89 -55 77 -67
88 -77 71z"/>
<path d="M2457 992 c-66 -104 -138 -242 -132 -252 15 -24 34 -2 105 122 85
150 87 153 65 161 -10 5 -22 -5 -38 -31z"/>
<path d="M6501 1020 c-17 -10 -20 -1 69 -158 71 -124 90 -146 105 -122 6 10
-136 274 -153 284 -5 3 -14 1 -21 -4z"/>
<path d="M2770 633 c-31 -66 -37 -89 -28 -95 9 -5 22 13 46 64 39 87 48 118
33 118 -6 0 -29 -39 -51 -87z"/>
<path d="M6189 678 c56 -128 66 -147 78 -140 16 10 -57 176 -80 180 -15 3 -15
-1 2 -40z"/>
<path d="M3185 480 c-21 -64 -26 -93 -18 -101 8 -8 20 16 42 82 28 85 31 109
12 109 -4 0 -20 -41 -36 -90z"/>
<path d="M5776 561 c-3 -4 8 -50 25 -100 22 -66 34 -90 42 -82 8 8 3 37 -18
101 -27 85 -37 101 -49 81z"/>
<path d="M4487 484 c-4 -4 -7 -79 -7 -166 0 -152 1 -158 20 -158 20 0 20 5 18
162 -3 151 -9 184 -31 162z"/>
<path d="M3616 377 c-10 -45 -20 -90 -22 -99 -4 -12 0 -18 10 -18 10 0 19 23
31 78 9 42 19 84 21 93 3 9 -2 19 -9 22 -11 4 -19 -15 -31 -76z"/>
<path d="M5362 451 c-7 -4 -11 -14 -8 -22 2 -8 12 -49 21 -91 11 -53 21 -78
30 -78 16 0 15 11 -14 132 -12 50 -19 65 -29 59z"/>
<path d="M4056 353 c-17 -121 -18 -163 -3 -163 12 0 17 20 23 88 11 112 11
105 -3 109 -6 2 -13 -12 -17 -34z"/>
<path d="M4927 383 c-2 -5 1 -50 6 -100 7 -70 13 -93 24 -93 15 0 14 44 -3
163 -5 34 -17 48 -27 30z"/>
</g>
</svg>
