<?xml version="1.0" standalone="no"?>
<!DOCTYPE svg PUBLIC "-//W3C//DTD SVG 20010904//EN"
 "http://www.w3.org/TR/2001/REC-SVG-20010904/DTD/svg10.dtd">
<svg version="1.0" xmlns="http://www.w3.org/2000/svg"
 width="2394.000000pt" height="2394.000000pt" viewBox="0 0 2394.000000 2394.000000"
 preserveAspectRatio="xMidYMid meet">
<metadata>
Created by potrace 1.14, written by Peter Selinger 2001-2017
</metadata>
<g transform="translate(0.000000,2394.000000) scale(0.100000,-0.100000)"
fill="#000000" stroke="none">
<path d="M11498 18105 c-2 -2 -71 -6 -153 -10 -83 -3 -179 -8 -215 -10 -97 -6
-239 -16 -290 -20 -25 -2 -74 -7 -110 -10 -69 -6 -134 -12 -215 -21 -27 -3
-66 -8 -85 -10 -62 -6 -123 -14 -205 -25 -44 -6 -98 -13 -120 -15 -22 -3 -65
-9 -95 -14 -30 -5 -75 -12 -100 -15 -25 -3 -52 -8 -60 -10 -8 -2 -34 -7 -58
-10 -49 -7 -271 -47 -332 -60 -14 -2 -56 -11 -95 -19 -83 -16 -283 -60 -375
-83 -36 -8 -69 -16 -75 -18 -70 -15 -362 -95 -505 -136 -408 -120 -983 -332
-1326 -490 -38 -17 -94 -42 -124 -56 -85 -39 -447 -219 -520 -259 -36 -19 -92
-50 -125 -68 -118 -65 -162 -90 -320 -184 -88 -52 -178 -107 -200 -122 -22
-15 -114 -76 -205 -136 -237 -155 -616 -430 -735 -532 -11 -10 -54 -44 -95
-77 -41 -33 -77 -62 -80 -65 -3 -3 -34 -30 -70 -60 -36 -30 -86 -72 -111 -95
-274 -243 -305 -272 -554 -520 -486 -486 -854 -920 -1280 -1512 -134 -186
-403 -591 -475 -714 -17 -30 -50 -83 -72 -119 -63 -99 -250 -426 -320 -558
-34 -64 -65 -118 -70 -120 -4 -2 -8 -10 -8 -17 0 -8 -13 -36 -28 -62 -15 -26
-78 -149 -139 -273 -105 -211 -137 -278 -203 -425 -15 -33 -39 -85 -53 -115
-51 -112 -161 -370 -228 -540 -39 -96 -74 -184 -79 -195 -5 -11 -25 -65 -45
-120 -20 -55 -41 -111 -47 -125 -85 -205 -377 -1135 -433 -1378 -2 -9 -14 -53
-25 -97 -24 -93 -29 -111 -35 -145 -2 -14 -14 -61 -26 -105 -11 -44 -22 -87
-24 -95 -2 -8 -14 -71 -29 -140 -14 -69 -28 -140 -31 -159 -3 -19 -8 -37 -10
-41 -4 -6 -12 -46 -20 -100 -2 -14 -6 -34 -8 -45 -3 -11 -8 -40 -12 -65 -4
-25 -9 -54 -11 -65 -2 -10 -6 -35 -9 -55 -3 -20 -7 -45 -9 -55 -2 -11 -7 -45
-12 -75 -4 -30 -8 -57 -9 -60 -1 -5 -13 -89 -20 -140 -2 -14 -6 -52 -10 -85
-3 -33 -8 -76 -10 -95 -16 -140 -19 -196 -19 -360 -1 -159 2 -192 18 -235 32
-85 100 -129 170 -111 39 10 107 68 128 108 16 31 66 213 82 298 3 14 8 39 11
55 17 90 81 329 111 418 47 137 106 290 116 302 4 5 8 15 8 21 0 23 177 391
244 509 19 33 47 83 62 110 52 96 207 341 303 478 149 213 169 241 311 421 33
42 257 305 304 356 57 63 410 415 476 476 37 33 141 122 290 247 61 52 314
238 410 302 58 39 107 73 108 78 2 4 8 7 12 7 5 0 52 27 105 60 53 33 98 60
99 60 2 0 43 23 92 51 76 44 326 168 404 201 14 6 33 14 43 19 75 39 459 173
552 193 6 2 30 8 55 15 54 16 75 21 115 27 17 3 44 9 60 14 36 11 202 40 265
46 25 3 56 7 70 9 62 12 210 19 390 19 243 0 351 -8 540 -40 47 -8 99 -16 115
-19 17 -3 41 -8 55 -11 14 -3 33 -8 43 -9 62 -13 293 -81 375 -110 232 -85
506 -215 680 -323 46 -29 88 -52 93 -52 5 0 9 -3 9 -8 0 -4 20 -18 45 -32 25
-14 45 -28 45 -32 0 -5 5 -8 10 -8 6 0 16 -5 23 -10 7 -6 59 -45 117 -87 58
-42 107 -79 110 -82 3 -3 21 -18 42 -33 20 -15 42 -33 50 -40 7 -7 40 -35 73
-63 106 -88 146 -126 331 -310 206 -205 308 -324 428 -498 71 -104 216 -333
216 -342 0 -2 16 -32 36 -67 38 -66 207 -399 242 -478 66 -147 102 -234 127
-305 33 -97 57 -140 104 -183 58 -54 139 -65 221 -30 43 18 79 58 209 233 201
270 353 421 563 561 53 35 99 64 103 64 4 0 19 8 33 18 103 70 465 198 642
227 19 3 58 10 85 15 28 5 73 12 100 15 28 4 61 8 75 10 180 26 800 27 938 0
9 -1 40 -6 67 -9 329 -43 655 -152 905 -304 41 -25 80 -49 85 -54 254 -196
333 -277 557 -574 58 -76 116 -150 128 -163 57 -58 163 -77 237 -41 66 32 111
96 148 210 10 30 25 73 35 95 270 624 548 1098 822 1402 104 115 380 384 504
490 584 501 1210 815 1849 928 119 21 216 33 355 44 108 8 408 7 520 -3 617
-55 1249 -273 1855 -639 45 -27 336 -217 348 -227 6 -6 64 -49 127 -97 266
-199 434 -346 700 -613 232 -232 260 -262 389 -415 130 -153 124 -146 207
-253 41 -53 81 -104 87 -112 30 -37 206 -287 247 -350 5 -8 20 -31 33 -50 13
-19 61 -98 107 -175 46 -77 91 -151 99 -165 67 -107 227 -435 306 -625 105
-254 200 -568 231 -765 11 -68 63 -259 80 -292 38 -75 128 -127 191 -112 48
12 71 34 100 92 27 55 28 62 28 222 0 149 -9 323 -19 390 -3 14 -7 52 -10 85
-9 83 -16 145 -21 175 -3 14 -14 84 -25 155 -21 136 -21 139 -46 275 -9 47
-18 95 -20 108 -2 12 -6 32 -8 45 -6 29 -65 306 -71 332 -3 11 -7 31 -10 45
-4 21 -107 431 -120 480 -3 8 -9 31 -14 50 -5 19 -19 69 -30 110 -12 41 -28
100 -37 130 -51 188 -228 729 -314 960 -18 47 -35 96 -40 110 -7 22 -53 141
-147 379 -14 36 -31 80 -39 96 -7 17 -31 73 -52 125 -43 104 -133 308 -180
410 -16 36 -40 88 -52 115 -83 186 -373 751 -519 1010 -208 367 -522 860 -747
1173 -49 68 -96 134 -104 146 -96 139 -450 584 -589 741 -10 11 -51 58 -92
105 -249 287 -679 722 -925 937 -47 40 -158 139 -168 148 -6 6 -51 44 -101 85
-49 41 -92 77 -95 80 -10 11 -288 229 -365 287 -173 129 -470 337 -569 398
-18 11 -109 68 -202 126 -167 104 -383 230 -559 324 -161 87 -625 315 -641
315 -2 0 -36 15 -76 34 -244 112 -809 326 -1063 401 -33 10 -85 26 -115 36
-112 35 -428 124 -484 135 -10 2 -42 10 -70 18 -43 12 -89 23 -258 62 -10 2
-27 6 -39 9 -11 2 -28 6 -37 9 -9 3 -34 7 -56 11 -21 3 -41 7 -45 9 -3 2 -22
7 -41 10 -19 3 -46 8 -60 11 -60 12 -188 36 -220 41 -19 3 -42 7 -50 9 -8 3
-33 7 -55 10 -22 4 -89 15 -150 25 -60 10 -135 22 -165 25 -30 3 -62 8 -70 10
-8 2 -37 7 -65 10 -27 3 -63 8 -80 11 -16 2 -50 7 -75 9 -25 2 -66 6 -92 9
-81 10 -130 15 -203 21 -38 3 -83 8 -100 10 -27 4 -60 6 -240 20 -33 2 -105 7
-160 10 -55 3 -136 8 -180 11 -88 6 -1092 14 -1097 9z"/>
</g>
</svg>
